# xmcd
# Copyright (C) 1995-1998 Ti Kan
#
# Track frame offsets:
#       150
#       18030
#       34962
#       51984
#       65810
#
# Disc length: 1129 seconds
#
# Revision: 0
# Processed by: cddbd v1.5.2PL0 Copyright (c) Steve Scherf et al.
# Submitted via: CD-Import v1.0
#
DISCID=40046705
DTITLE=Ska Nerfs - Jusqu'à La Dernière Gorgée
DYEAR=07
DGENRE=
TTITLE0=Promeneur D'éphémère
TTITLE1=Mon Nom Est Occident
TTITLE2=Jusqu'à La Dernière Gorgée
TTITLE3=La Fille Percillée
TTITLE4=Terre Rebelle
EXTD=
EXTT0=
EXTT1=
EXTT2=
EXTT3=
EXTT4=
PLAYORDER=
